<svg xmlns="http://www.w3.org/2000/svg" viewBox="0 0 256 256" role="img" aria-label="Anonymous mugshot silhouette">
  <rect width="256" height="256" fill="#f7f5ef"/>
  <g stroke="#000" stroke-linecap="square">
    <g stroke-width="1.2">
      <line x1="24" y1="20" x2="232" y2="20"/>
      <line x1="24" y1="42" x2="232" y2="42"/>
      <line x1="24" y1="64" x2="232" y2="64"/>
      <line x1="24" y1="86" x2="232" y2="86"/>
      <line x1="24" y1="108" x2="232" y2="108"/>
      <line x1="24" y1="130" x2="232" y2="130"/>
      <line x1="24" y1="152" x2="232" y2="152"/>
      <line x1="24" y1="174" x2="232" y2="174"/>
      <line x1="24" y1="196" x2="232" y2="196"/>
    </g>
    <g stroke-width="0.7" opacity="0.72">
      <line x1="24" y1="31" x2="232" y2="31"/>
      <line x1="24" y1="53" x2="232" y2="53"/>
      <line x1="24" y1="75" x2="232" y2="75"/>
      <line x1="24" y1="97" x2="232" y2="97"/>
      <line x1="24" y1="119" x2="232" y2="119"/>
      <line x1="24" y1="141" x2="232" y2="141"/>
      <line x1="24" y1="163" x2="232" y2="163"/>
      <line x1="24" y1="185" x2="232" y2="185"/>
    </g>
  </g>
  <g fill="#000" font-family="Arial, Helvetica, sans-serif" font-size="11" font-weight="700">
    <text x="10" y="24">6'9"</text>
    <text x="226" y="24">6'9"</text>
    <text x="10" y="68">6'3"</text>
    <text x="226" y="68">6'3"</text>
    <text x="10" y="112">6'0"</text>
    <text x="226" y="112">6'0"</text>
    <text x="10" y="156">5'6"</text>
    <text x="226" y="156">5'6"</text>
    <text x="10" y="200">5'0"</text>
    <text x="226" y="200">5'0"</text>
  </g>
  <path fill="#000" d="M128 50c-24.8 0-39.6 16.4-39.6 43.8v22.7c0 11.2 4.5 22.8 12.4 31.5v22.5c-22.7 4.9-43.4 13.1-59.6 22.9-5.2 3.1-8.4 8.9-8.7 15l-1.1 26.6h193.2l-1.1-26.6c-.3-6.1-3.5-11.9-8.7-15-16.2-9.8-36.9-18-59.6-22.9V148c7.9-8.7 12.4-20.3 12.4-31.5V93.8C167.6 66.4 152.8 50 128 50Z"/>
  <rect x="0" y="0" width="256" height="256" fill="none" stroke="#000" stroke-width="6"/>
</svg>
